<svg width="30" height="26" fill="none" xmlns="http://www.w3.org/2000/svg"><path d="M28.528.554c-.48-.407-1.234-.465-2.014-.152h-.001c-.82.329-23.207 9.931-24.118 10.324-.166.057-1.614.597-1.465 1.8.133 1.085 1.297 1.535 1.439 1.587L8.06 16.06c.378 1.257 1.77 5.895 2.078 6.885.192.618.505 1.43 1.053 1.597.482.185.96.016 1.27-.228l3.48-3.227 5.617 4.38.134.08c.381.17.747.254 1.096.254.269 0 .527-.05.774-.152.842-.345 1.179-1.147 1.214-1.238l4.196-21.81c.256-1.164-.1-1.757-.444-2.048zM13.08 16.841l-1.92 5.12-1.92-6.4L23.96 4.68 13.08 16.84z" fill="#fff"/></svg>