<svg width="30" height="19" fill="none" xmlns="http://www.w3.org/2000/svg"><path d="M29.509 16.83c-1.198-2.157-4.284-4.747-5.558-5.875a.828.828 0 01-.07-1.184c2.432-2.613 4.377-5.615 5.046-7.429.296-.8-.316-1.648-1.177-1.648h-2.502c-.825 0-1.307.296-1.537.768-2.021 4.14-3.754 5.932-4.968 6.98-.68.586-1.738.1-1.738-.792V2.13A1.39 1.39 0 0015.608.746l-4.57-.052a.692.692 0 00-.56 1.108l.755 1.084c.284.375.438.832.438 1.3l-.004 4.88c0 .848-1.03 1.262-1.64.668-2.066-2.012-3.858-6.12-4.504-8.086A1.392 1.392 0 004.2.694L1.735.688c-.924 0-1.6.877-1.35 1.76 2.253 7.904 6.874 15.424 15.108 16.24a1.387 1.387 0 001.512-1.382v-2.564c0-.736.576-1.368 1.318-1.386h.078c2.178 0 4.617 3.17 5.47 4.652a1.38 1.38 0 001.2.687h3.316c.967 0 1.588-1.026 1.122-1.866z" fill="#fff"/></svg>