<svg width="30" height="22" fill="none" xmlns="http://www.w3.org/2000/svg"><path d="M14.905.027C10.67.027 6.735.33 4.49.798l-.015.004c-1.691.38-3.284 1.59-3.62 3.488v.008c-.26 1.53-.523 3.523-.523 6.396 0 2.867.264 4.808.59 6.418.344 1.841 1.9 3.09 3.617 3.474a.72.72 0 00.025.006c2.343.462 6.167.769 10.402.769 4.236 0 8.061-.307 10.405-.769a.755.755 0 00.025-.006c1.692-.38 3.285-1.59 3.62-3.488l.003-.015c.253-1.56.582-3.552.647-6.43v-.021c0-2.88-.33-4.886-.652-6.474-.34-1.846-1.898-3.098-3.618-3.482a1 1 0 00-.08-.015C23.032.34 19.142.027 14.906.027zm-2.468 5.668c.247-.005.503.054.743.19l5.735 3.24a1.416 1.416 0 010 2.473l-5.735 3.24c-.96.542-2.155-.144-2.155-1.236V7.12c0-.82.672-1.41 1.412-1.425z" fill="#fff"/></svg>